<svg xmlns="http://www.w3.org/2000/svg" viewBox="0 0 392 78" role="img" aria-labelledby="title desc">
  <title id="title">AquaVista horizontal logo</title>
  <desc id="desc">AquaVista wordmark and descriptor with abstract water, data and leaf symbol.</desc>
  <defs>
    <linearGradient id="av-horizontal-water" x1="13" y1="10" x2="61" y2="66" gradientUnits="userSpaceOnUse">
      <stop offset="0" stop-color="#3D9DB3"/>
      <stop offset="0.52" stop-color="#2FA7A0"/>
      <stop offset="1" stop-color="#153A3E"/>
    </linearGradient>
    <clipPath id="av-horizontal-drop-clip">
      <path d="M37 7C50.5 22.6 62.2 36.4 62.2 51.4C62.2 64.2 51.9 72 37 72C22.1 72 11.8 64.2 11.8 51.4C11.8 36.4 23.5 22.6 37 7Z"/>
    </clipPath>
  </defs>
  <path fill="url(#av-horizontal-water)" d="M37 7C50.5 22.6 62.2 36.4 62.2 51.4C62.2 64.2 51.9 72 37 72C22.1 72 11.8 64.2 11.8 51.4C11.8 36.4 23.5 22.6 37 7Z"/>
  <g clip-path="url(#av-horizontal-drop-clip)">
    <path fill="none" stroke="#F5F7F4" stroke-opacity=".42" stroke-width="3.7" stroke-linecap="round" d="M21.4 51.4C29.6 45.3 33.7 34.8 36.1 22.2"/>
    <path fill="none" stroke="#72B88A" stroke-width="5" stroke-linecap="round" d="M23 53.2C34.2 45.8 42.8 35.8 55.4 30.6"/>
    <path fill="none" stroke="#F5F7F4" stroke-opacity=".88" stroke-width="3.1" stroke-linecap="round" stroke-linejoin="round" d="M26.8 47.4L35.2 41.8L42.5 45.2L50.8 36.8"/>
    <rect x="27.7" y="49.4" width="4.9" height="9.8" rx="1.9" fill="#F5F7F4" fill-opacity=".86"/>
    <rect x="35.8" y="45.9" width="4.9" height="13.3" rx="1.9" fill="#F5F7F4" fill-opacity=".86"/>
    <rect x="43.9" y="41" width="4.9" height="18.2" rx="1.9" fill="#F5F7F4" fill-opacity=".86"/>
  </g>
  <text x="88" y="39" fill="#102F33" font-family="Inter, Arial, sans-serif" font-size="30" font-weight="760" letter-spacing="0">AquaVista</text>
  <text x="90" y="59" fill="#5D787B" font-family="Inter, Arial, sans-serif" font-size="11" font-weight="760" letter-spacing="1.35">AI-POWERED WATER RISK INTELLIGENCE</text>
</svg>
